<svg width="513" height="512" viewBox="0 0 513 512" fill="none" xmlns="http://www.w3.org/2000/svg">
<g clip-path="url(#clip0_4_7302)">
<path d="M256.578 512C397.963 512 512.578 397.385 512.578 256C512.578 114.615 397.963 0 256.578 0C115.193 0 0.578125 114.615 0.578125 256C0.578125 397.385 115.193 512 256.578 512Z" fill="#F0F0F0"/>
<path d="M256.578 0C146.507 0 52.6721 69.472 16.5011 166.957H496.656C460.484 69.472 366.649 0 256.578 0Z" fill="#6DA544"/>
<path d="M256.578 512C366.649 512 460.484 442.528 496.655 345.043H16.5011C52.6721 442.528 146.507 512 256.578 512Z" fill="black"/>
<path d="M110.516 195L124.329 237.512H169.032L132.867 263.79L146.681 306.304L110.516 280.029L74.351 306.304L88.165 263.79L52 237.512H96.703L110.516 195Z" fill="#D80027"/>
<path d="M387.516 195L401.329 237.512H446.033L409.867 263.79L423.681 306.304L387.516 280.029L351.351 306.304L365.165 263.79L329 237.512H373.703L387.516 195Z" fill="#D80027"/>
<path d="M256.516 200L270.329 242.512H315.033L278.867 268.79L292.681 311.304L256.516 285.029L220.351 311.304L234.165 268.79L198 242.512H242.703L256.516 200Z" fill="#D80027"/>
</g>
<defs>
<clipPath id="clip0_4_7302">
<rect width="512" height="512" fill="white" transform="translate(0.578125)"/>
</clipPath>
</defs>
</svg>
